<svg width="32" height="28" viewBox="0 0 32 28" fill="none" xmlns="http://www.w3.org/2000/svg">
<path fill-rule="evenodd" clip-rule="evenodd" d="M11.9978 14.6952V16.384C6.15237 15.1257 1.875 11.1853 1.875 6.53127V5.60155H9.41413V3.75401C9.41413 1.68403 11.1123 0 13.1996 0H18.8005C20.8878 0 22.5859 1.68403 22.5859 3.75401V5.60155H30.125V6.53127C30.125 11.1853 25.8476 15.1257 20.0022 16.384V14.6952C20.0022 14.1817 19.5824 13.7655 19.0647 13.7655H12.9353C12.4176 13.7655 11.9978 14.1817 11.9978 14.6952ZM13.1995 1.85944C12.1461 1.85944 11.2891 2.70932 11.2891 3.75401H11.289V5.60155H20.7109V3.75401C20.7109 2.70932 19.8538 1.85944 18.8004 1.85944H13.1995ZM27.2133 15.1969C25.1703 16.7163 22.6763 17.7712 19.9619 18.2917C19.6878 20.2171 18.0161 21.7033 16 21.7033C13.9839 21.7033 12.3122 20.2171 12.0381 18.2917C9.32369 17.7712 6.82969 16.7163 4.78669 15.1969C1.69994 12.901 0 9.82352 0 6.53127V23.4211C0 25.9459 2.07131 28 4.61719 28H27.3828C29.9287 28 32 25.9459 32 23.4211V6.53127C32 9.82352 30.3001 12.901 27.2133 15.1969ZM13.8728 15.6248H18.1272V17.7344C18.1272 18.8976 17.1729 19.8439 16 19.8439C14.8271 19.8439 13.8728 18.8976 13.8728 17.7344V15.6248Z" fill="white"/>
</svg>
