<svg width="23" height="32" viewBox="0 0 23 32" fill="none" xmlns="http://www.w3.org/2000/svg">
<path fill-rule="evenodd" clip-rule="evenodd" d="M11.5006 13.601C15.2269 13.601 18.2476 10.5563 18.2476 6.80052C18.2476 3.0447 15.2269 0 11.5006 0C7.7743 0 4.75354 3.0447 4.75354 6.80052C4.75354 10.5563 7.7743 13.601 11.5006 13.601ZM8.63749 14.064H14.3621C19.1258 14.064 23.0004 17.9696 23 22.7703V29.8284H22.9526L22.5019 30.059C22.2738 30.1748 18.5937 32 12.2456 32C8.99489 32 5.04549 31.5217 0.500434 30.0906L0.0176347 29.9386L0 29.8284V22.7703C0 17.9696 3.87533 14.064 8.63749 14.064ZM11.5982 29.5831L12.8334 27.761C12.8444 27.744 12.8502 27.7246 12.8479 27.7037L12.2311 18.8556C12.2271 18.8086 12.1887 18.773 12.1421 18.773H10.9512C10.9041 18.773 10.8661 18.8086 10.863 18.8556L10.2889 27.7045C10.2881 27.7242 10.2928 27.7428 10.3026 27.7582L11.45 29.5815C11.4661 29.6072 11.4939 29.6226 11.5229 29.6226H11.5253C11.5547 29.6226 11.5813 29.6079 11.5982 29.5831ZM12.2746 18.5052H10.8587L9.62778 15.9409C9.62778 15.6949 9.82529 15.4966 10.0694 15.4966H13.0254C13.2688 15.4966 13.4663 15.6949 13.4663 15.9409L12.2746 18.5052Z" fill="white"/>
</svg>
