<svg width="16" height="24" viewBox="0 0 16 24" fill="none" xmlns="http://www.w3.org/2000/svg">
<path fill-rule="evenodd" clip-rule="evenodd" d="M14 0C15.104 0 16 0.895 16 2V22C16 23.104 15.104 24 14 24H2C0.895 24 0 23.104 0 22V2C0 0.896 0.895 0 2 0H14ZM9.5 2H6.499C6.224 2 6 2.224 6 2.5C6 2.776 6.224 3 6.499 3H9.5C9.776 3 10 2.776 10 2.5C10 2.224 9.776 2 9.5 2ZM8 22C7.447 22 7 21.552 7 21C7 20.448 7.447 20 8 20C8.552 20 8.999 20.448 8.999 21C8.999 21.552 8.552 22 8 22ZM2 19H14V4.976H2V19Z" fill="#333333"/>
</svg>
