<svg width="32" height="32" viewBox="0 0 32 32" fill="none" xmlns="http://www.w3.org/2000/svg">
<path fill-rule="evenodd" clip-rule="evenodd" d="M31.3434 0.00279297C25.0969 -0.109211 17.973 3.15624 13.4638 8.22177C9.15454 8.30311 4.95863 10.0698 1.86937 13.1593C1.68937 13.3366 1.62537 13.602 1.70404 13.842C1.78404 14.0833 1.99203 14.258 2.24269 14.294L7.38125 15.03L6.7466 15.7407C6.5106 16.0047 6.5226 16.4061 6.77326 16.6568L15.3424 25.2264C15.4717 25.3557 15.6424 25.4211 15.8144 25.4211C15.9731 25.4211 16.1317 25.3651 16.2584 25.2517L16.969 24.6171L17.705 29.7559C17.741 30.0066 17.9384 30.1906 18.177 30.2706C18.2383 30.2906 18.3023 30.2999 18.3677 30.2999C18.557 30.2999 18.7503 30.2173 18.8837 30.0853C21.9303 27.0385 23.6969 22.8423 23.7782 18.5328C28.8488 14.014 32.1407 6.89239 31.9954 0.653484C31.986 0.298804 31.6994 0.0121267 31.3434 0.00279297ZM25.1995 11.5126C24.5502 12.1619 23.6969 12.4873 22.8422 12.4873C21.9876 12.4873 21.1343 12.1619 20.485 11.5126C19.1863 10.2125 19.1863 8.09776 20.485 6.79772C21.7849 5.49767 23.8996 5.49767 25.1995 6.79772C26.4995 8.09776 26.4995 10.2138 25.1995 11.5126ZM0.0280759 31.1413C0.246738 30.4119 2.20536 23.9664 3.632 22.5396C5.23863 20.9342 7.8519 20.9329 9.45987 22.5396C11.0665 24.1464 11.0665 26.7611 9.45987 28.3679C8.03323 29.7946 1.58804 31.7533 0.858724 31.972C0.794726 31.9907 0.730727 32 0.666729 32C0.492066 32 0.322736 31.932 0.194739 31.804C0.0227427 31.6307 -0.0425892 31.376 0.0280759 31.1413Z" fill="white"/>
</svg>
